<?xml version="1.0" encoding="utf-8"?>
<!-- Generator: Adobe Illustrator 25.0.0, SVG Export Plug-In . SVG Version: 6.00 Build 0)  -->
<svg version="1.1" id="Ebene_1" xmlns="http://www.w3.org/2000/svg" xmlns:xlink="http://www.w3.org/1999/xlink" x="0px" y="0px"
	 viewBox="0 0 1775 1774.8" style="enable-background:new 0 0 1775 1774.8;" xml:space="preserve">
<style type="text/css">
	.st0{fill:#25F4EE;}
	.st1{fill:#FE2C55;}
</style>
<g>
	<path class="st0" d="M714.3,698.9v-69.2c-24-3.8-48.3-5.9-72.6-6.2c-235.3-0.5-443.6,152-514.3,376.4s12.7,468.7,205.9,603.1
		c-202.6-216.9-191.1-556.9,25.8-759.5C455.7,753.3,582.2,701.8,714.3,698.9L714.3,698.9z"/>
	<path class="st0" d="M727.4,1482.4c131.6-0.2,239.7-103.8,245.5-235.2V74.3h214.3c-4.4-24.5-6.5-49.4-6.2-74.3H887.8v1171.7
		c-4.9,132.1-113.3,236.7-245.5,236.9c-39.5-0.3-78.4-10-113.4-28.3C575,1444.1,648.8,1482,727.4,1482.4z M1587.3,472.2V407
		c-78.9,0-156-23.2-221.6-66.9C1423.2,407.1,1501.1,453.4,1587.3,472.2z"/>
</g>
<path class="st1" d="M1365.7,340.1c-64.7-73.7-100.4-168.4-100.3-266.4h-78.2C1207.5,183.2,1272.1,279.6,1365.7,340.1z M641.8,916.6
	C505.9,917.3,396.3,1028,397,1163.9c0.5,90.9,51,174.1,131.4,216.4c-79.5-109.8-55-263.3,54.8-342.8c41.9-30.4,92.4-46.7,144.2-46.7
	c24.6,0.3,49,4.2,72.6,11.4V704c-24-3.6-48.3-5.5-72.6-5.7h-13v226.7C690.7,918.8,666.3,915.9,641.8,916.6z"/>
<path class="st1" d="M1587.3,472.2v226.7c-146-0.3-288.2-46.5-406.4-132.1v595.8c-0.6,297.3-241.8,538-539.1,538
	c-110.4,0.2-218.2-33.9-308.4-97.5c202.3,217.6,542.7,230,760.3,27.7c109.4-101.7,171.6-244.4,171.7-393.9V642.8
	c118.7,85,261,130.6,407,130.4v-292C1643.8,481.2,1615.3,478.1,1587.3,472.2L1587.3,472.2z"/>
<path d="M1180.9,1162.6V566.9c118.6,85.1,261,130.7,407,130.4V470.5c-86.2-18.2-164.2-64-222.2-130.4
	c-93.6-60.5-158.1-156.9-178.6-266.4H972.8v1173.4c-5.5,135.8-120.1,241.3-255.9,235.8c-75.3-3.1-145-40.4-189.2-101.4
	c-120.2-63.3-166.4-212.1-103.1-332.3c42.3-80.4,125.6-131,216.5-131.4c24.6,0.2,49.1,4,72.6,11.3V702.3
	c-296.8,5-533.2,249.7-528.2,546.4c2.3,134.4,54.8,263,147.3,360.6c91.1,61.5,199,93.4,308.9,91.3
	C939.1,1700.6,1180.2,1459.9,1180.9,1162.6L1180.9,1162.6z"/>
</svg>
